<svg xmlns="http://www.w3.org/2000/svg" xmlns:xlink="http://www.w3.org/1999/xlink" viewBox="0 0 260.37 46.1"><defs><style>.cls-1{fill:none;}.cls-2{clip-path:url(#clip-path);}.cls-3{fill:url(#linear-gradient);}.cls-4{clip-path:url(#clip-path-2);}.cls-5{fill:url(#linear-gradient-2);}</style><clipPath id="clip-path"><path class="cls-1" d="M3.5,44.56l7.38-1.76v-.16L3.5,40.8Zm246-1.92v.16l7.38,1.76V40.8ZM0,6.18,4.05,19.23h0l.13.4h0a2.25,2.25,0,0,1,1.69-.85c1.53,0,2.76,1.8,2.76,4s-1.23,4-2.76,4A2.24,2.24,0,0,1,4.2,26h0l-.15.48h0L0,39.93H260.37l-4-12.46h0L255.85,26l-.19.18a2.48,2.48,0,0,1-1.61.64c-1.65,0-3-1.8-3-4s1.33-4,3-4a2.54,2.54,0,0,1,1.83.85l.46-1.38,4-12.07ZM3.5,5.3l7.38-1.84V3.3L3.5,1.54Zm246-2v.16l7.38,1.84V1.54Z"/></clipPath><linearGradient id="linear-gradient" x1="-2550.74" y1="-692.09" x2="-2548.89" y2="-692.09" gradientTransform="matrix(140.36, 0, 0, -140.36, 358010.89, -97115.16)" gradientUnits="userSpaceOnUse"><stop offset="0" stop-color="#002915"/><stop offset="0.4" stop-color="#125d3b"/><stop offset="0.6" stop-color="#125d3b"/><stop offset="1" stop-color="#002915"/></linearGradient><clipPath id="clip-path-2"><path class="cls-1" d="M3.5,44.56l7.38,1.54V42.8Zm246,1.54,7.38-1.54-7.38-1.76ZM10.88,42.64V41.49H249.49v1.15l10.88-2.71H0Zm238.61-38H10.88V3.46L0,6.17H260.37L249.49,3.46ZM3.5,1.54,10.88,3.3V0Zm246,1.76,7.38-1.76L249.49,0Z"/></clipPath><linearGradient id="linear-gradient-2" x1="-2550.74" y1="-692.09" x2="-2548.89" y2="-692.09" gradientTransform="matrix(140.36, 0, 0, -140.36, 358010.89, -97115.16)" gradientUnits="userSpaceOnUse"><stop offset="0" stop-color="#b85328"/><stop offset="0.5" stop-color="#ef925f"/><stop offset="1" stop-color="#b85328"/></linearGradient></defs><title>buy-btn</title><g id="Шар_2" data-name="Шар 2"><g id="Layer_1" data-name="Layer 1"><g class="cls-2"><rect class="cls-3" y="1.54" width="260.37" height="43.02"/></g><g class="cls-4"><rect class="cls-5" width="260.37" height="46.1"/></g></g></g></svg>